# Blender 4.1.1
# www.blender.org
mtllib littleroot_house.mtl
o Cube
v 1.984863 3.500000 -4.010604
v 1.984863 0.000000 -4.010604
v 1.925316 1.987803 -1.845794
v 1.984863 3.500000 2.010604
v 1.984863 0.000000 2.010604
v 1.925316 1.987803 -3.164810
v -1.984863 3.500000 -4.010604
v -1.984863 0.000000 -4.010604
v -1.984863 3.500000 2.010604
v -1.984863 0.000000 2.010604
v 0.000000 4.453401 2.010604
v 0.000000 4.453401 -4.010604
v 1.925316 0.000000 -1.845794
v 1.925316 0.000000 -3.164810
v 1.984863 0.000000 -3.164810
v 1.984863 0.000000 -1.845794
v 1.984863 1.987803 -1.845794
v 1.984863 1.987803 -3.164810
v 1.984863 2.386578 -1.845794
v 1.984863 0.009679 -1.845794
v 1.984863 0.009679 -3.164810
v 1.984863 2.386578 -3.164810
v 1.925316 0.007553 -3.164810
v 1.925543 0.007561 -3.164810
v 1.925316 0.007553 -1.845794
v 1.936760 0.382023 -3.164810
v 1.925316 0.244818 -3.164810
v 1.955591 1.810039 -3.170828
v 2.015137 1.810039 -3.170828
v 1.984863 3.500000 -4.010604
v 1.984863 0.000000 -4.010604
v 1.984863 3.500000 2.010604
v 1.984863 0.000000 2.010604
v -1.984863 3.500000 -4.010604
v -1.984863 0.000000 -4.010604
v -1.984863 3.500000 2.010604
v -1.984863 0.000000 2.010604
v 0.000000 4.453401 2.010604
v 1.984863 3.500000 3.989396
v 1.984863 0.000000 3.989396
v -1.984863 3.500000 3.989396
v -1.984863 0.000000 3.989396
v 0.000000 4.453401 3.989396
vn -0.0000 1.0000 -0.0000
vn -1.0000 -0.0000 -0.0000
vn -0.0000 -1.0000 -0.0000
vn 1.0000 -0.0000 -0.0000
vn -0.0000 -0.0000 -1.0000
vn -0.0000 -0.0000 1.0000
vn 0.4330 0.9014 -0.0000
vn -0.4330 0.9014 -0.0000
vt 0.125000 0.750000
vt 0.375000 0.750000
vt 0.625000 0.000000
vt 0.375000 0.000000
vt 0.992377 -0.855120
vt 0.935924 0.061171
vt 0.022977 0.061171
vt 0.089772 -0.984976
vt 0.375000 0.589883
vt 0.125000 0.500000
vt 0.375000 0.500000
vt 0.375000 0.535117
vt 0.371250 0.535117
vt 0.371250 0.589883
vt -1.141753 10.058372
vt -1.044294 10.058558
vt -1.044294 11.069695
vt -1.738320 11.069242
vt -1.738320 10.057843
vt -1.293768 10.058139
vt -1.293768 10.060938
vt -1.293771 10.632530
vt -1.293770 10.747737
vt -1.141755 10.747911
vt -1.141757 10.632716
vt -1.141753 10.061171
vt 0.625000 0.750000
vt 0.625000 0.500000
vt 0.625000 0.250000
vt 0.377470 0.250570
vt 0.377469 0.250000
vt 0.376525 0.250000
vt 0.376525 0.400002
vt 0.377735 0.400002
vt 0.376525 0.849998
vt 0.376525 1.000000
vt 0.377469 1.000000
vt 0.377735 0.849998
vt 0.375000 0.350001
vt 0.583057 0.350001
vt 0.583094 0.275000
vt 0.399934 0.275000
vt 0.414315 0.289414
vt 0.375000 0.275285
vt 0.375000 0.275000
vt 0.375000 0.899999
vt 0.375000 0.975000
vt 0.583094 0.975000
vt 0.583057 0.899999
vt 1.040315 -1.068642
vt 1.605023 -0.794274
vt 1.521536 -0.414199
vt 0.959066 -0.604196
vt 0.450557 0.986082
vt 0.454053 0.919306
vt 0.492550 0.932227
vt 0.492550 1.000083
vt 0.000000 0.000000
vt 0.375000 0.250000
vt 0.625000 1.000000
vt 1.457628 0.664790
vt 0.935825 0.502050
vt -1.966437 11.069242
vt -1.966437 10.057843
s 0
usemtl Material.006
f 10/1/1 5/2/1 33/2/1 37/1/1
f 9/3/1 10/4/1 37/4/1 36/3/1
f 10/5/2 9/6/2 7/7/2 8/8/2
f 16/9/3 5/2/3 10/1/3 8/10/3 2/11/3 15/12/3 14/13/3 13/14/3
f 15/15/4 2/16/4 1/17/4 4/18/4 5/19/4 16/20/4 20/21/4 17/22/4 19/23/4 22/24/4 18/25/4 21/26/4
f 5/2/1 4/27/1 32/27/1 33/2/1
f 1/28/5 7/29/5 12/28/5
f 24/30/6 23/31/6 14/32/6 15/33/6 21/34/6
f 16/35/5 13/36/5 25/37/5 20/38/5
f 21/39/6 18/40/6 6/41/6 27/42/6 26/43/6 24/44/6
f 23/45/6 24/44/6 26/43/6 27/42/6
f 20/46/5 25/47/5 3/48/5 17/49/5
f 37/1/3 33/2/3 40/2/3 42/1/3
f 36/50/2 37/51/2 42/52/2 41/53/2
f 35/54/5 34/55/5 30/56/5 31/57/5
f 4/58/1 11/58/1 38/58/1 32/58/1
f 7/29/1 1/28/1 30/28/1 34/29/1
f 1/28/1 2/11/1 31/11/1 30/28/1
f 2/11/1 8/10/1 35/10/1 31/11/1
f 11/58/1 9/58/1 36/58/1 38/58/1
f 8/59/1 7/29/1 34/29/1 35/59/1
f 41/60/6 39/27/6 43/60/6
f 40/61/6 39/62/6 41/53/6 42/52/6
f 33/19/4 32/18/4 39/63/4 40/64/4
f 32/58/7 38/58/7 43/58/7 39/58/7
f 38/58/8 36/58/8 41/58/8 43/58/8
l 28 29
o roof
v 2.000000 3.500000 -4.500000
v 2.000000 3.500000 4.500000
v -2.000000 3.500000 -4.500000
v -2.000000 3.500000 4.500000
v 0.000000 4.453401 4.500000
v 0.000000 4.453401 -4.500000
v 2.090084 3.644683 -4.500000
v 2.090084 3.644683 4.500000
v -2.090084 3.644683 4.500000
v -2.090084 3.644683 -4.500000
v -0.173616 4.558264 -4.500000
v 0.173616 4.558264 -4.500000
v 0.000000 4.468031 -4.500000
v -0.093960 4.583636 -4.500000
v -0.000000 4.592546 -4.500000
v 0.093960 4.583636 -4.500000
v 0.173616 4.558264 4.500000
v -0.173616 4.558264 4.500000
v 0.000000 4.468031 4.500000
v 0.093960 4.583636 4.500000
v 0.000000 4.592546 4.500000
v -0.093960 4.583636 4.500000
v 2.351255 3.332557 -4.500000
v 2.351255 3.332557 4.500000
v -2.351255 3.332557 4.500000
v -2.351255 3.332557 -4.500000
v 2.441339 3.477240 -4.500000
v 2.441339 3.477240 4.500000
v -2.441339 3.477240 4.500000
v -2.441339 3.477240 -4.500000
v 2.223320 3.858672 -4.500000
v 2.223320 3.858672 4.500000
v -2.223320 3.858672 4.500000
v -2.223320 3.858672 -4.500000
v -0.288187 4.780374 -4.500000
v -0.157053 4.820986 -4.500000
v -0.000000 4.836231 -4.500000
v 0.157053 4.820986 -4.500000
v 0.288187 4.780374 -4.500000
v 0.288187 4.780374 4.500000
v 0.157053 4.820986 4.500000
v 0.000000 4.836231 4.500000
v -0.157053 4.820986 4.500000
v -0.288187 4.780374 4.500000
v 2.574575 3.691229 -4.500000
v 2.574575 3.691229 4.500000
v -2.574575 3.691229 4.500000
v -2.574575 3.691229 -4.500000
vn 0.4303 -0.9027 -0.0000
vn -0.4303 -0.9027 -0.0000
vn -0.0000 -0.0000 -1.0000
vn -0.0000 -0.0000 1.0000
vn -0.8489 -0.5286 -0.0000
vn 0.8489 -0.5286 -0.0000
vn -0.4300 0.9028 -0.0000
vn -0.2958 0.9552 -0.0000
vn -0.0966 0.9953 -0.0000
vn 0.0966 0.9953 -0.0000
vn 0.2958 0.9552 -0.0000
vn 0.4300 0.9028 -0.0000
vn 0.4303 0.9027 -0.0000
vn -0.4303 0.9027 -0.0000
vt 0.625000 0.250000
vt 0.625000 0.000000
vt 0.625000 0.750000
vt 0.625000 0.500000
vt 0.513330 0.068986
vt 0.513262 0.461598
vt 0.511575 0.462976
vt 0.491625 0.445192
vt 0.491691 0.068977
vt 0.625000 0.250000
vt 0.505840 0.403870
vt 0.505840 0.421141
vt 0.505300 0.421203
vt 0.505300 0.403808
vt 0.504493 0.421203
vt 0.504493 0.403808
vt -2.034084 -5.879349
vt 2.493550 -5.879304
vt 2.944862 -2.712224
vt -2.485232 -2.712076
vt 2.958549 -2.444942
vt -2.498912 -2.444793
vt 2.970105 -2.133673
vt -2.510460 -2.133523
vt 2.977052 -1.815378
vt -2.517401 -1.815229
vt 2.979064 -1.530422
vt -2.519405 -1.530272
vt 2.979120 3.012528
vt -2.519350 3.012677
vt 2.963155 3.819308
vt -2.503367 3.819458
vt -1.943024 -6.264922
vt 2.402558 -6.264885
vt 0.491697 0.000022
vt 0.459685 0.068969
vt 0.459690 0.000016
vt 0.459707 0.448770
s 0
usemtl Material.004
f 46/65/9 49/65/9 48/66/9 47/66/9
f 45/67/10 48/67/10 49/68/10 44/68/10
f 49/65/11 46/65/11 53/65/11 54/65/11 56/65/11
f 44/68/11 49/68/11 56/68/11 55/68/11 50/68/11
f 47/69/12 48/70/12 62/71/12 61/72/12 52/73/12
f 45/67/10 44/68/10 66/68/10 67/67/10
f 48/67/12 45/67/12 51/67/12 60/67/12 62/67/12
f 54/65/11 53/65/11 77/65/11 78/65/11
f 53/65/11 46/65/11 69/65/11 73/65/11
f 54/65/11 57/74/11 56/65/11
f 57/74/11 58/65/11 56/65/11
f 58/65/11 59/65/11 56/65/11
f 59/65/11 55/65/11 56/65/11
f 60/66/12 63/66/12 62/66/12
f 63/66/12 64/66/12 62/66/12
f 64/66/12 65/66/12 62/66/12
f 65/66/12 61/66/12 62/66/12
f 64/66/12 63/66/12 84/66/12 85/66/12
f 59/65/11 58/65/11 80/65/11 81/65/11
f 63/66/12 60/66/12 83/66/12 84/66/12
f 73/65/13 72/66/13 90/66/13 91/65/13
f 58/65/11 57/74/11 79/74/11 80/65/11
f 69/65/13 68/66/13 72/66/13 73/65/13
f 67/75/14 66/76/14 70/77/14 71/78/14
f 47/66/12 52/66/12 72/66/12 68/66/12
f 50/68/11 55/68/11 82/68/11 74/68/11
f 44/68/11 50/68/11 70/68/11 66/68/11
f 46/65/9 47/66/9 68/66/9 69/65/9
f 51/67/12 45/67/12 67/67/12 71/67/12
f 71/78/14 70/77/14 88/79/14 89/80/14
f 77/81/15 76/82/15 87/83/15 78/84/15
f 78/84/16 87/83/16 86/85/16 79/86/16
f 79/86/17 86/85/17 85/87/17 80/88/17
f 80/88/18 85/87/18 84/89/18 81/90/18
f 81/90/19 84/89/19 83/91/19 82/92/19
f 75/93/20 74/94/20 82/92/20 83/91/20
f 74/94/21 75/93/21 89/95/21 88/96/21
f 76/82/22 77/81/22 91/97/22 90/98/22
f 72/99/12 52/73/12 76/100/12 90/101/12
f 55/65/11 59/65/11 81/65/11 82/65/11
f 65/66/12 64/66/12 85/66/12 86/66/12
f 52/73/12 61/72/12 87/102/12 76/100/12
f 61/66/12 65/66/12 86/66/12 87/66/12
f 51/67/12 71/67/12 89/67/12 75/67/12
f 70/68/11 50/68/11 74/68/11 88/68/11
f 60/67/12 51/67/12 75/67/12 83/67/12
f 53/65/11 73/65/11 91/65/11 77/65/11
f 57/74/11 54/65/11 78/65/11 79/74/11
o Cube.001
v -1.500000 3.900000 3.000000
v -1.500000 5.600000 3.000000
v -1.500000 3.900000 -3.000000
v -1.500000 5.600000 -3.000000
v 1.500000 3.900000 3.000000
v 1.500000 5.600000 3.000000
v 1.500000 3.900000 -3.000000
v 1.500000 5.600000 -3.000000
v 0.000000 6.108614 3.000000
v 0.000000 6.108614 -3.000000
vn -1.0000 -0.0000 -0.0000
vn -0.0000 -0.0000 -1.0000
vn 1.0000 -0.0000 -0.0000
vn -0.0000 -0.0000 1.0000
vn -0.0000 -1.0000 -0.0000
vt -0.084295 0.015623
vt -0.128792 0.326004
vt -0.128792 -0.270602
vt -0.079598 -0.028490
vt 0.191985 0.685465
vt 0.142791 0.443354
vt 0.241913 0.433212
vt 0.198181 0.717075
vt -0.014303 0.471636
vt -0.013479 0.299585
vt 1.018830 0.304526
vt 1.018007 0.476577
vt 0.202109 0.446898
vt 0.254630 0.716524
vt 0.151191 0.729179
vt 0.195688 0.418798
vt 0.125000 0.500000
vt 0.375000 0.500000
vt 0.375000 0.750000
vt 0.125000 0.750000
vt 0.333179 0.502393
vt 0.436618 0.489738
vt 0.386313 0.726330
vt 0.180317 0.433212
vt 0.081195 0.443354
vt 0.130358 0.263217
s 0
usemtl Material.005
f 92/103/23 93/104/23 95/105/23 94/106/23
f 94/107/24 95/108/24 99/109/24 98/110/24
f 98/111/25 99/112/25 97/113/25 96/114/25
f 96/115/26 97/116/26 93/117/26 92/118/26
f 94/119/27 98/120/27 96/121/27 92/122/27
f 93/123/26 97/124/26 100/125/26
f 99/126/24 95/127/24 101/128/24
o Cube.002
v -1.500000 5.600000 3.500000
v -1.500000 5.600000 -3.500000
v 1.500000 5.600000 3.500000
v 1.500000 5.600000 -3.500000
v 0.000000 6.108614 3.500000
v 0.000000 6.108614 -3.500000
v -1.646338 5.738585 3.500000
v -1.646338 5.738585 -3.500000
v 1.646338 5.738585 -3.500000
v 1.646338 5.738585 3.500000
v -1.955116 5.445681 -3.500000
v -1.955116 5.445681 3.500000
v 0.106710 6.235662 3.500000
v -0.106710 6.235662 3.500000
v 0.000000 6.200519 3.500000
v 0.057751 6.246223 3.500000
v 0.000000 6.249932 3.500000
v -0.057751 6.246223 3.500000
v -0.106710 6.235662 -3.500000
v 0.106710 6.235662 -3.500000
v 0.000000 6.200519 -3.500000
v -0.057751 6.246223 -3.500000
v 0.000000 6.249932 -3.500000
v 0.057751 6.246223 -3.500000
v 1.955116 5.445681 -3.500000
v 1.955116 5.445681 3.500000
v -2.101454 5.584266 3.500000
v -2.101454 5.584266 -3.500000
v 2.101454 5.584266 -3.500000
v 2.101454 5.584266 3.500000
v 0.106710 6.235662 3.500000
v 0.057751 6.246223 3.500000
v 0.000000 6.249932 3.500000
v -0.057751 6.246223 3.500000
v -0.106710 6.235662 3.500000
v -0.106710 6.235662 -3.500000
v -0.057751 6.246223 -3.500000
v 0.000000 6.249932 -3.500000
v 0.057751 6.246223 -3.500000
v 0.106710 6.235662 -3.500000
vn 0.3211 -0.9470 -0.0000
vn -0.3211 -0.9470 -0.0000
vn -0.0000 -0.0000 1.0000
vn -0.3072 0.9516 -0.0000
vn -0.0000 -0.0000 -1.0000
vn -0.6876 -0.7261 -0.0000
vn -0.0000 1.0000 -0.0000
vn 0.3072 0.9516 -0.0000
vn 0.6876 -0.7261 -0.0000
vn -0.3211 0.9470 -0.0000
vn 0.3211 0.9470 -0.0000
vn 0.2109 0.9775 -0.0000
vn 0.0641 0.9979 -0.0000
vn -0.0641 0.9979 -0.0000
vn -0.2109 0.9775 -0.0000
vt 0.625000 0.250000
vt 0.625000 0.000000
vt 0.625000 0.750000
vt 0.625000 0.500000
vt -1.183667 -2.285829
vt 2.153630 -2.326505
vt 2.169647 0.630312
vt -1.167650 0.670987
vt 0.625000 0.000000
vt 2.185664 3.587128
vt -1.151633 3.627804
vt -1.167650 0.670988
vt 2.169647 0.630311
vt -0.006975 0.493533
vt 0.010524 0.324665
vt 0.021219 0.327159
vt 0.003720 0.496027
vt -1.188461 -3.170832
vt 2.148836 -3.211507
vt 2.190459 4.472131
vt -1.146839 4.512805
vt 2.148836 -3.211507
vt -1.188460 -3.170831
vt -1.188934 -3.258246
vt 2.148363 -3.298922
vt -1.189460 -3.355230
vt 2.147836 -3.395905
vt -1.189985 -3.452213
vt 2.147312 -3.492888
vt -1.190458 -3.539628
vt 2.146838 -3.580303
vt 0.625000 0.750000
vt 0.625000 0.250000
s 0
usemtl Material.003
f 103/129/28 107/129/28 106/130/28 102/130/28
f 104/131/29 106/131/29 107/132/29 105/132/29
f 102/130/30 106/130/30 116/130/30 115/130/30 108/130/30
f 106/131/30 104/131/30 111/131/30 114/131/30 116/131/30
f 109/133/31 108/134/31 115/135/31 120/136/31
f 105/132/32 107/132/32 122/132/32 121/132/32 110/132/32
f 102/130/30 108/130/30 128/130/30 113/130/30
f 112/129/33 113/130/33 128/130/33 129/129/33
f 107/129/32 103/129/32 109/129/32 120/129/32 122/129/32
f 103/129/28 102/130/28 113/130/28 112/129/28
f 114/130/30 117/137/30 116/130/30
f 117/137/30 118/130/30 116/130/30
f 118/130/30 119/137/30 116/130/30
f 119/137/30 115/137/30 116/130/30
f 120/129/32 123/129/32 122/129/32
f 123/129/32 124/129/32 122/129/32
f 124/129/32 125/129/32 122/129/32
f 125/129/32 121/129/32 122/129/32
f 124/129/34 123/129/34 138/129/34 139/129/34
f 115/137/34 119/137/34 135/137/34 136/137/34
f 123/129/34 120/129/34 137/129/34 138/129/34
f 119/137/34 118/130/34 134/130/34 135/137/34
f 111/138/35 110/139/35 121/140/35 114/141/35
f 127/142/36 126/143/36 130/144/36 131/145/36
f 108/134/37 109/133/37 129/146/37 128/147/37
f 109/129/32 103/129/32 112/129/32 129/129/32
f 111/131/30 104/131/30 127/131/30 131/131/30
f 104/131/29 105/132/29 126/132/29 127/131/29
f 105/132/32 110/132/32 130/132/32 126/132/32
f 110/139/38 111/138/38 131/148/38 130/149/38
f 132/150/39 141/151/39 140/152/39 133/153/39
f 133/153/40 140/152/40 139/154/40 134/155/40
f 134/155/41 139/154/41 138/156/41 135/157/41
f 135/157/42 138/156/42 137/158/42 136/159/42
f 117/137/34 114/130/34 132/130/34 133/137/34
f 114/160/34 121/132/34 141/132/34 132/160/34
f 120/161/34 115/130/34 136/130/34 137/161/34
f 125/129/34 124/129/34 139/129/34 140/129/34
f 118/130/34 117/137/34 133/137/34 134/130/34
f 121/129/34 125/129/34 140/129/34 141/129/34
o Cube.003
v 0.721494 1.080000 3.159999
v 0.721494 2.280000 3.159999
v 0.721494 1.080000 1.760000
v 0.721494 2.280000 1.760000
v 2.078505 1.252265 2.959024
v 2.078505 2.107736 2.959024
v 2.078505 1.252265 1.960975
v 2.078505 2.107736 1.960975
v 2.078505 2.280000 1.760000
v 2.078505 1.080000 1.760000
v 2.078505 1.080000 3.159999
v 2.078505 2.280000 3.159999
v -0.768580 2.107736 1.960975
v -0.768580 1.252265 1.960975
v -0.768580 1.252265 2.959024
v -0.768580 2.107736 2.959024
vn -1.0000 -0.0000 -0.0000
vn -0.0000 -0.0000 -1.0000
vn -0.0000 -0.0000 1.0000
vn -0.0000 -1.0000 -0.0000
vn -0.0000 1.0000 -0.0000
vn 1.0000 -0.0000 -0.0000
vt 0.375000 0.000000
vt 0.625000 0.000000
vt 0.625000 0.250000
vt 0.375000 0.250000
vt 0.625000 0.500000
vt 0.375000 0.500000
vt 0.410888 0.535888
vt 0.589112 0.535888
vt 0.375000 0.750000
vt 0.625000 0.750000
vt 0.625000 1.000000
vt 0.375000 1.000000
vt 0.125000 0.500000
vt 0.125000 0.750000
vt 0.875000 0.500000
vt 0.875000 0.750000
vt 0.410888 0.714112
vt 0.589112 0.714112
s 0
usemtl Material.002
f 142/162/43 143/163/43 145/164/43 144/165/43
f 144/165/44 145/164/44 150/166/44 151/167/44
f 148/168/45 149/169/45 154/169/45 155/168/45
f 152/170/45 153/171/45 143/172/45 142/173/45
f 144/174/46 151/167/46 152/170/46 142/175/46
f 150/166/47 145/176/47 143/177/47 153/171/47
f 149/169/48 148/168/48 151/167/48 150/166/48
f 148/168/48 146/178/48 152/170/48 151/167/48
f 147/179/48 149/169/48 150/166/48 153/171/48
f 146/178/48 147/179/48 153/171/48 152/170/48
f 155/168/48 154/169/48 157/179/48 156/178/48
f 147/179/44 146/178/44 156/178/44 157/179/44
f 146/178/47 148/168/47 155/168/47 156/178/47
f 149/169/46 147/179/46 157/179/46 154/169/46
o door
v 1.710000 0.006844 -1.842815
v 1.710000 2.386578 -1.842815
v 1.710000 0.006844 -3.157185
v 1.710000 2.386578 -3.157185
v 1.910000 0.013932 -1.842815
v 1.910000 2.386578 -1.842815
v 1.910000 0.013932 -3.157185
v 1.910000 2.386578 -3.157185
vn -1.0000 -0.0000 -0.0000
vn -0.0000 -0.0000 -1.0000
vn 1.0000 -0.0000 -0.0000
vn -0.0000 -0.0000 1.0000
vn 0.0354 -0.9994 -0.0000
vn -0.0000 1.0000 -0.0000
vt 0.375000 0.000000
vt 0.625000 0.000000
vt 0.625000 0.250000
vt 0.375000 0.250000
vt 0.625000 0.500000
vt 0.375000 0.500000
vt 1.005399 0.002922
vt 1.005399 0.991523
vt 0.183918 0.991523
vt 0.183918 0.002922
vt 0.375000 0.750000
vt 0.625000 0.750000
vt 0.625000 1.000000
vt 0.375000 1.000000
vt 0.125000 0.500000
vt 0.125000 0.750000
vt 0.875000 0.500000
vt 0.875000 0.750000
s 0
usemtl Material.001
f 158/180/49 159/181/49 161/182/49 160/183/49
f 160/183/50 161/182/50 165/184/50 164/185/50
f 164/186/51 165/187/51 163/188/51 162/189/51
f 162/190/52 163/191/52 159/192/52 158/193/52
f 160/194/53 164/185/53 162/190/53 158/195/53
f 165/184/54 161/196/54 159/197/54 163/191/54
o Cylinder
v 1.972279 1.272094 -2.070000
v 2.024746 1.277777 -2.070000
v 1.972279 1.250978 -2.120978
v 2.024746 1.254997 -2.124997
v 1.972279 1.200000 -2.142094
v 2.024746 1.200000 -2.147777
v 1.972279 1.149022 -2.120978
v 2.024746 1.145003 -2.124997
v 1.972279 1.127906 -2.070000
v 2.024746 1.122223 -2.070000
v 1.972279 1.149022 -2.019022
v 2.024746 1.145003 -2.015003
v 1.972279 1.200000 -1.997906
v 2.024746 1.200000 -1.992223
v 1.972279 1.250978 -2.019022
v 2.024746 1.254997 -2.015003
v 2.065459 1.280528 -2.150528
v 2.065460 1.313884 -2.070000
v 2.065459 1.200000 -2.183883
v 2.065459 1.119472 -2.150528
v 2.065459 1.086117 -2.070000
v 2.065459 1.119472 -1.989472
v 2.065460 1.200000 -1.956116
v 2.065460 1.280528 -1.989472
v 2.127698 1.266749 -2.136749
v 2.127698 1.294398 -2.070000
v 2.127698 1.200000 -2.164397
v 2.127698 1.133251 -2.136749
v 2.127698 1.105602 -2.070000
v 2.127698 1.133251 -2.003251
v 2.127698 1.200000 -1.975602
v 2.127698 1.266749 -2.003251
v 2.154590 1.228992 -2.098992
v 2.154590 1.241001 -2.070000
v 2.154590 1.200000 -2.111001
v 2.154590 1.171008 -2.098992
v 2.154590 1.158999 -2.070000
v 2.154590 1.171008 -2.041008
v 2.154590 1.200000 -2.028999
v 2.154590 1.228992 -2.041008
vn -0.0996 0.9193 -0.3808
vn -0.0996 0.3808 -0.9193
vn -0.0996 -0.3808 -0.9193
vn -0.0996 -0.9193 -0.3808
vn -0.0996 -0.9193 0.3808
vn -0.0996 -0.3808 0.9193
vn -0.6338 0.7146 0.2960
vn -0.0996 0.3808 0.9193
vn -0.0996 0.9193 0.3808
vn 0.2779 0.3676 0.8875
vn -0.6338 0.7146 -0.2960
vn -0.6338 -0.2960 -0.7146
vn -0.6338 -0.2960 0.7146
vn -0.6338 -0.7146 -0.2960
vn -0.6338 0.2960 0.7146
vn -0.6338 0.2960 -0.7146
vn -0.6338 -0.7146 0.2960
vn 0.8780 -0.1832 0.4422
vn 0.2779 -0.8875 0.3676
vn 0.2779 -0.3676 -0.8875
vn 0.2779 0.8875 -0.3676
vn 0.2779 0.8875 0.3676
vn 0.2779 -0.3676 0.8875
vn 0.2779 -0.8875 -0.3676
vn 0.2779 0.3676 -0.8875
vn 1.0000 -0.0000 -0.0000
vn 0.8780 -0.4422 -0.1832
vn 0.8780 0.1832 -0.4422
vn 0.8780 0.1832 0.4422
vn 0.8780 -0.4422 0.1832
vn 0.8780 -0.1832 -0.4422
vn 0.8780 0.4422 -0.1832
vn 0.8780 0.4422 0.1832
vt 1.000000 0.500000
vt 1.000000 1.000000
vt 0.875000 1.000000
vt 0.875000 0.500000
vt 0.750000 1.000000
vt 0.750000 0.500000
vt 0.625000 1.000000
vt 0.625000 0.500000
vt 0.500000 1.000000
vt 0.500000 0.500000
vt 0.375000 1.000000
vt 0.375000 0.500000
vt 0.250000 1.000000
vt 0.250000 0.500000
vt 0.000000 1.000000
vt 0.125000 1.000000
vt 0.125000 0.500000
vt 0.000000 0.500000
vt 0.419706 0.419706
vt 0.250000 0.490000
vt 0.080294 0.419706
vt 0.010000 0.250000
vt 0.080294 0.080294
vt 0.250000 0.010000
vt 0.419706 0.080294
vt 0.490000 0.250000
s 0
usemtl Material
f 166/198/55 167/199/55 169/200/55 168/201/55
f 168/201/56 169/200/56 171/202/56 170/203/56
f 170/203/57 171/202/57 173/204/57 172/205/57
f 172/205/58 173/204/58 175/206/58 174/207/58
f 174/207/59 175/206/59 177/208/59 176/209/59
f 176/209/60 177/208/60 179/210/60 178/211/60
f 167/212/61 181/213/61 189/213/61 183/212/61
f 178/211/62 179/210/62 181/213/62 180/214/62
f 180/214/63 181/213/63 167/212/63 166/215/63
f 189/213/64 188/210/64 196/210/64 197/213/64
f 169/200/65 167/199/65 183/199/65 182/200/65
f 173/204/66 171/202/66 184/202/66 185/204/66
f 179/210/67 177/208/67 187/208/67 188/210/67
f 175/206/68 173/204/68 185/204/68 186/206/68
f 181/213/69 179/210/69 188/210/69 189/213/69
f 171/202/70 169/200/70 182/200/70 184/202/70
f 177/208/71 175/206/71 186/206/71 187/208/71
f 196/210/72 195/208/72 203/208/72 204/210/72
f 187/208/73 186/206/73 194/206/73 195/208/73
f 185/204/74 184/202/74 192/202/74 193/204/74
f 182/200/75 183/199/75 191/199/75 190/200/75
f 183/212/76 189/213/76 197/213/76 191/212/76
f 188/210/77 187/208/77 195/208/77 196/210/77
f 186/206/78 185/204/78 193/204/78 194/206/78
f 184/202/79 182/200/79 190/200/79 192/202/79
f 198/216/80 199/217/80 205/218/80 204/219/80 203/220/80 202/221/80 201/222/80 200/223/80
f 194/206/81 193/204/81 201/204/81 202/206/81
f 192/202/82 190/200/82 198/200/82 200/202/82
f 197/213/83 196/210/83 204/210/83 205/213/83
f 195/208/84 194/206/84 202/206/84 203/208/84
f 193/204/85 192/202/85 200/202/85 201/204/85
f 190/200/86 191/199/86 199/199/86 198/200/86
f 191/212/87 197/213/87 205/213/87 199/212/87
